<svg xmlns="http://www.w3.org/2000/svg"  viewBox="0 0 100 100" width="100px" height="100px"><path fill="#3070b7" stroke="#78a2d2" stroke-miterlimit="10" d="M70.011,18.988h-39c-6.6,0-12,5.4-12,12v39c0,6.6,5.4,12,12,12 h39c6.6,0,12-5.4,12-12v-39C82.011,24.388,76.611,18.988,70.011,18.988z"/><path fill="#3a83c1" d="M70.011,81.988h-39c-6.6,0-12-5.4-12-12V57.487c4.141-4.02,9.787-6.499,16.014-6.499h31 c6.213,0,11.847,2.468,15.986,6.472v12.528C82.011,76.588,76.611,81.988,70.011,81.988z"/><path fill="#40a6dd" d="M70.011,81.988h-39c-6.6,0-12-5.4-12-12v-4.501c4.141-4.02,9.787-6.499,16.014-6.499h31 c6.213,0,11.847,2.468,15.986,6.472v4.528C82.011,76.588,76.611,81.988,70.011,81.988z"/><path fill="#31c4f3" d="M70.011,81.988h-39c-5.528,0-10.201-3.794-11.578-8.903c4.099-3.783,9.574-6.096,15.592-6.096h31 c6.006,0,11.472,2.304,15.569,6.074C80.226,78.183,75.548,81.988,70.011,81.988z"/><path fill="#1f212b" d="M70.011,82.988h-39c-7.18,0-13-5.82-13-13v-39c0-7.18,5.82-13,13-13h39c7.18,0,13,5.82,13,13v39 C83.011,77.168,77.19,82.988,70.011,82.988z M20.011,30.988v39c0,6.075,4.925,11,11,11h39c6.075,0,11-4.925,11-11v-39 c0-6.075-4.925-11-11-11h-39C24.935,19.988,20.011,24.913,20.011,30.988z"/><path fill="#1f212b" d="M67.173,77.988H33.848c-5.985,0-10.837-4.852-10.837-10.837V33.825 c0-5.985,4.852-10.837,10.837-10.837h33.663c0.276,0,0.5,0.224,0.5,0.5s-0.224,0.5-0.5,0.5H33.848 c-5.433,0-9.837,4.404-9.837,9.837V67.15c0,5.433,4.405,9.838,9.838,9.838h33.325c5.433,0,9.837-4.404,9.837-9.837V48.488 c0-0.276,0.224-0.5,0.5-0.5s0.5,0.224,0.5,0.5V67.15C78.011,73.136,73.158,77.988,67.173,77.988z M77.511,45.567 c-0.276,0-0.5-0.224-0.5-0.5v-4c0-0.276,0.224-0.5,0.5-0.5s0.5,0.224,0.5,0.5v4C78.011,45.344,77.787,45.567,77.511,45.567z M77.511,39.567c-0.276,0-0.5-0.224-0.5-0.5v-2c0-0.276,0.224-0.5,0.5-0.5s0.5,0.224,0.5,0.5v2 C78.011,39.344,77.787,39.567,77.511,39.567z"/><path fill="#fff" d="M67.401,65.5H33.599c-2.264,0-4.099-1.835-4.099-4.099V40.599c0-2.264,1.835-4.099,4.099-4.099 h33.802c2.264,0,4.099,1.835,4.099,4.099v20.802C71.5,63.665,69.665,65.5,67.401,65.5z"/><path fill="none" stroke="#1f212b" stroke-linecap="round" stroke-linejoin="round" stroke-miterlimit="10" d="M67.401,65.5H33.599 c-2.264,0-4.099-1.835-4.099-4.099V40.599c0-2.264,1.835-4.099,4.099-4.099h33.802c2.264,0,4.099,1.835,4.099,4.099v20.802 C71.5,63.665,69.665,65.5,67.401,65.5z"/><path fill="none" stroke="#1f212b" stroke-linecap="round" stroke-linejoin="round" stroke-miterlimit="10" d="M31.072,37.372 l13.821,16.454c2.95,3.512,8.335,3.574,11.365,0.131l14.178-16.111"/><line x1="58.689" x2="70.425" y1="51.194" y2="64.167" fill="none" stroke="#1f212b" stroke-linecap="round" stroke-linejoin="round" stroke-miterlimit="10"/><line x1="31.072" x2="42.691" y1="64.641" y2="51.203" fill="none" stroke="#1f212b" stroke-linecap="round" stroke-linejoin="round" stroke-miterlimit="10"/></svg>